<svg width="243" height="94" viewBox="0 0 243 94" fill="aliceblue" xmlns="http://www.w3.org/2000/svg">
<path d="M114.867 2.36372C111.437 3.65974 108.549 4.77788 108.435 4.90494C108.321 5.00659 108.464 5.26071 108.778 5.46401C109.235 5.76895 109.293 5.94684 109.007 6.55673C108.835 7.01415 108.807 7.39533 108.95 7.52239C109.121 7.67487 109.093 9.25042 108.921 11.4359C108.664 14.4345 108.692 15.2731 109.007 16.1117L109.407 17.1282L109.75 16.2134C110.093 15.2985 109.979 7.09039 109.636 6.55673C109.207 5.94684 109.836 6.0739 111.608 6.96333C113.724 8.00522 113.867 8.36099 113.038 10.4194C112.437 11.9187 112.437 15.1715 113.066 17.3823C113.981 20.7113 116.525 23.7862 119.184 24.7773C124.244 26.6578 129.819 21.7532 130.505 14.8157C130.677 13.1385 130.591 12.4015 130.048 10.521C129.705 9.27583 129.533 8.23393 129.676 8.18311C130.705 7.85275 135.079 5.33694 135.079 5.05741C135.079 4.67623 122.586 -0.0504379 121.671 0.000387192C121.328 0.0257988 118.269 1.0677 114.867 2.36372ZM118.269 12.8081C119.784 13.4434 121.357 13.9517 121.786 13.9517C122.214 13.9517 123.644 13.4943 124.959 12.9606C127.675 11.8425 127.875 11.8933 128.218 13.7484C128.418 14.714 128.447 14.7395 128.961 14.3074C129.476 13.9009 129.504 13.9009 129.504 14.3583C129.476 15.4764 128.618 18.3734 127.932 19.6186C126.388 22.3377 124.044 23.8624 121.414 23.8624C120.128 23.8624 119.613 23.71 118.469 23.0238C116.125 21.6262 114.41 19.0595 113.895 16.1879C113.695 15.1969 113.724 15.146 114.296 15.2731C114.896 15.4256 114.925 15.3493 114.925 13.5451C114.925 12.4524 115.039 11.6646 115.21 11.6646C115.382 11.6646 116.754 12.1728 118.269 12.8081Z" fill="aliceblue"/>
<path d="M111.608 24.3961C109.436 25.0568 106.92 26.7594 105.691 28.4366L104.776 29.7073H102.174C99.83 29.7073 99.5155 29.7581 98.9723 30.2917C98.6293 30.6221 98.3434 31.1049 98.3434 31.3845C98.3434 31.791 98.4006 31.7656 98.715 31.232C99.4583 29.936 98.9437 29.9614 121.814 30.0376C142.369 30.0884 143.198 30.1138 143.77 30.5713C144.142 30.8762 144.37 31.359 144.37 31.8673C144.37 32.2993 143.513 36.0857 142.484 40.2787C141.454 44.4463 140.482 48.5122 140.311 49.3C140.139 50.0878 139.768 51.0026 139.482 51.333L138.967 51.9429H121.5H104.032L103.546 51.3584C103.289 51.0535 102.489 48.4868 101.803 45.5898C101.088 42.7183 100.487 40.4312 100.43 40.482C100.345 40.5328 100.859 42.947 101.545 45.844C102.489 49.9353 102.917 51.2568 103.403 51.7142L104.032 52.3241H121.357C131.906 52.3241 138.881 52.2224 139.196 52.0699C139.968 51.7142 140.196 51.0026 141.912 43.9381C142.769 40.3804 143.77 36.3144 144.113 34.9167C144.885 31.791 144.856 31.0795 144.056 30.3171C143.484 29.7581 143.17 29.7073 140.883 29.7073H138.367L137.681 28.7416C136.766 27.471 134.793 25.8446 133.221 25.0568C132.049 24.4978 128.99 23.6592 128.847 23.8879C128.818 23.9387 128.504 24.4978 128.161 25.1331C127.846 25.7684 126.96 27.0644 126.217 28.0046C124.902 29.6818 124.845 29.7073 123.615 29.7073C122.415 29.7073 122.357 29.6818 122.357 28.9449C122.357 28.4875 122.643 27.9538 123.072 27.5726C124.216 26.5561 124.044 26.1495 122.615 26.4799C121.814 26.6578 121.042 26.6578 120.185 26.4799C118.67 26.175 118.555 26.4545 119.67 27.6489C120.099 28.1063 120.356 28.6654 120.299 28.9957C120.242 29.4785 120.013 29.6056 119.013 29.6564L117.841 29.7327L116.383 27.6489C115.582 26.4799 114.782 25.1839 114.61 24.7011C114.267 23.71 114.01 23.6846 111.608 24.3961Z" fill="aliceblue"/>
<path d="M98.3719 32.655C98.3719 32.9346 98.4555 33.0108 98.5391 32.8075C98.6228 32.6296 98.5949 32.4009 98.5113 32.3247C98.4277 32.223 98.3441 32.3755 98.3719 32.655Z" fill="aliceblue"/>
<path d="M98.6578 33.6715C98.6578 33.951 98.7414 34.0273 98.8251 33.824C98.9087 33.6461 98.8808 33.4174 98.7972 33.3412C98.7136 33.2395 98.6299 33.392 98.6578 33.6715Z" fill="aliceblue"/>
<path d="M98.9437 34.9421C98.9437 35.2216 99.0273 35.2979 99.111 35.0946C99.1946 34.9167 99.1667 34.688 99.0831 34.6118C98.9995 34.5101 98.9158 34.6626 98.9437 34.9421Z" fill="aliceblue"/>
<path d="M99.2295 36.2127C99.2295 36.4923 99.3131 36.5685 99.3967 36.3652C99.4803 36.1873 99.4524 35.9586 99.3688 35.8824C99.2852 35.7807 99.2016 35.9332 99.2295 36.2127Z" fill="aliceblue"/>
<path d="M99.5439 37.3309C99.5439 37.6866 99.5997 37.8137 99.6833 37.6358C99.739 37.4833 99.739 37.1784 99.6833 37.0005C99.5997 36.848 99.5439 36.9751 99.5439 37.3309Z" fill="aliceblue"/>
<path d="M99.8014 38.4999C99.8014 38.7794 99.885 38.8556 99.9686 38.6523C100.052 38.4744 100.024 38.2457 99.9407 38.1695C99.8571 38.0678 99.7735 38.2203 99.8014 38.4999Z" fill="aliceblue"/>
<path d="M100.116 39.6179C100.116 39.9737 100.172 40.1008 100.255 39.9229C100.311 39.7704 100.311 39.4655 100.255 39.2876C100.172 39.1351 100.116 39.2622 100.116 39.6179Z" fill="aliceblue"/>
<path d="M120.642 40.5074C120.442 40.7107 120.356 41.1427 120.471 41.5239C120.614 42.0321 120.842 42.1592 121.5 42.1592C122.186 42.1592 122.386 42.0321 122.529 41.473C122.844 40.4311 121.414 39.6942 120.642 40.5074Z" fill="aliceblue"/>
<path d="M161.524 51.6888V54.1029H202.262H243V51.6888V49.2746H202.262H161.524V51.6888Z" fill="aliceblue"/>
<path d="M0 52.197V54.6111H40.7382H81.4763V52.197V49.7828H40.7382H0V52.197Z" fill="aliceblue"/>
<path d="M102.032 53.2389C101.774 53.5184 101.746 53.7471 101.974 54.0521C102.232 54.4587 103.861 54.4841 121.5 54.4841C139.139 54.4841 140.769 54.4587 141.026 54.0521C141.255 53.7471 141.226 53.5184 140.969 53.2389C140.626 52.8831 138.567 52.8323 121.5 52.8323C104.433 52.8323 102.375 52.8831 102.032 53.2389Z" fill="aliceblue"/>
<path d="M88.9093 67.1648C88.9093 67.4189 89.2809 67.5714 90.1386 67.6222L91.3393 67.6984L91.425 72.73L91.4822 77.787L90.7675 77.2534C89.624 76.4656 87.194 76.1098 85.1356 76.4402C82.334 76.8722 80.7045 78.0666 79.5609 80.5316C78.7605 82.285 78.8176 88.5872 79.6467 90.1882C81.0475 92.8819 82.9343 93.9746 86.1362 94C88.4233 94 89.6526 93.5934 90.6818 92.5007C91.6252 91.535 91.7681 91.5096 91.7681 92.399C91.7681 93.7459 91.8825 93.7713 96.6281 93.6951C99.83 93.6442 101.031 93.5426 101.145 93.2885C101.202 93.0852 100.916 92.9835 100.23 92.9835H99.201L99.1439 79.9471L99.0581 66.9361L93.998 66.8598C89.6812 66.809 88.9093 66.8598 88.9093 67.1648ZM90.2815 78.0666C91.3107 79.0322 91.4822 80.0996 91.4822 85.1057C91.4822 89.1209 91.3965 89.9595 90.939 90.8489C89.8813 92.9073 87.5085 92.8565 86.9939 90.7727C86.708 89.5275 86.708 81.2685 86.9939 79.7438C87.3941 77.66 88.995 76.8468 90.2815 78.0666Z" fill="aliceblue"/>
<path d="M206.121 67.1898C206.121 67.4693 206.435 67.571 207.264 67.571H208.408V80.2771V92.9832H207.264C206.435 92.9832 206.121 93.0848 206.121 93.3644C206.121 93.6947 206.978 93.7455 212.01 93.7455C216.584 93.7455 217.87 93.6693 217.785 93.4152C217.699 93.2627 217.27 93.0594 216.813 92.9832L215.984 92.8561V87.5196C215.984 81.6239 216.241 80.2517 217.556 79.0065C218.499 78.117 219.671 77.99 220.129 78.7269C220.3 79.0319 220.415 81.8526 220.415 86.0965V92.9832H219.7C219.243 92.9832 218.985 93.1357 218.985 93.3644C218.985 93.6947 219.814 93.7455 224.703 93.7455C229.592 93.7455 230.421 93.6947 230.421 93.3644C230.421 93.0848 230.106 92.9832 229.306 92.9832H228.162L228.076 86.4268C227.991 79.9975 227.991 79.8705 227.276 78.7523C226.218 77.0497 224.589 76.3382 221.844 76.3636C219.243 76.3636 217.642 76.9989 216.67 78.422L215.984 79.3877L215.898 73.0854L215.841 66.8086H210.981C206.864 66.8086 206.121 66.8594 206.121 67.1898Z" fill="aliceblue"/>
<path d="M69.5833 67.9271C68.2397 68.4607 67.7537 69.2485 67.7537 70.9257C67.7537 72.1709 67.868 72.5013 68.5541 73.1874C69.955 74.5597 73.3569 74.6613 74.8435 73.3399C75.7869 72.4759 76.0442 70.3412 75.3295 69.1215C74.5291 67.6984 71.6702 67.1139 69.5833 67.9271Z" fill="aliceblue"/>
<path d="M23.6708 68.714C19.9829 69.6034 17.2099 71.6618 15.5803 74.7367C13.1789 79.2346 13.6077 85.9942 16.5237 89.679C18.6679 92.4235 21.9269 93.7704 26.8727 93.9483C29.3884 94.0245 30.3604 93.9228 32.9334 93.3892C35.9637 92.7285 37.0786 92.7539 37.5932 93.4654C37.679 93.6179 37.9649 93.745 38.1936 93.745C38.5366 93.745 38.5938 92.9064 38.5938 88.6625V83.5801H39.4515C40.0232 83.5801 40.3091 83.453 40.3091 83.1989C40.3091 82.8685 39.48 82.8177 34.4485 82.8177C29.5314 82.8177 28.588 82.8685 28.588 83.1735C28.588 83.4276 28.9882 83.5801 29.8172 83.6309L31.0179 83.7071V87.519C31.0179 89.6028 30.9322 91.6357 30.8178 91.9915C30.5319 92.8555 29.2169 93.3384 27.6731 93.1605C23.7851 92.7031 22.0413 88.2813 22.3843 79.6412C22.6416 72.8562 23.8709 70.1879 27.1871 69.3239C30.0459 68.5361 33.3908 70.8486 35.9923 75.372C36.3354 75.9818 36.8214 76.4647 37.0501 76.4647C37.4503 76.4647 37.5075 76.0073 37.4217 72.6783C37.3645 70.5945 37.2216 68.7902 37.1072 68.6886C36.9643 68.5869 36.6212 68.714 36.3068 68.9681C35.735 69.4255 35.6492 69.4255 33.0477 68.8919C29.9602 68.2565 25.8435 68.1803 23.6708 68.714Z" fill="aliceblue"/>
<path d="M137.224 68.9178C137.224 69.1974 137.567 69.3498 138.453 69.4007L139.654 69.4769L139.739 81.2173L139.797 92.9831H138.51C137.538 92.9831 137.224 93.0848 137.224 93.3897C137.224 93.7455 138.053 93.7709 145.314 93.6693C151.546 93.593 153.776 93.466 155.177 93.1356C160.38 91.9412 163.382 89.3238 164.525 85.0545C165.011 83.1486 165.097 78.8032 164.64 76.9227C163.954 74.0257 162.067 71.7132 159.294 70.4171C156.263 68.9941 154.805 68.7908 145.6 68.6637C138.167 68.5366 137.224 68.5875 137.224 68.9178ZM151.889 69.9089C153.719 70.3155 155.148 71.6877 155.892 73.7715C156.463 75.3979 156.521 76.1095 156.521 80.7853C156.521 86.6555 156.263 88.1294 154.863 90.2132C153.748 91.8396 152.204 92.6274 149.602 92.8815L147.801 93.0594V81.2173V69.3752L149.316 69.5023C150.117 69.604 151.289 69.7564 151.889 69.9089Z" fill="aliceblue"/>
<path d="M110.093 76.4901C108.035 76.795 106.376 77.4811 105.004 78.5739C101.402 81.4708 101.088 87.9764 104.375 91.3054C106.119 93.0588 108.149 93.7958 111.665 93.9482C115.096 94.0753 117.097 93.6687 118.755 92.4489C119.756 91.6866 121.214 89.5011 121.214 88.7133C121.214 88.078 120.413 88.4338 120.099 89.2216C119.184 91.5087 116.954 92.8555 114.295 92.6776C112.952 92.6014 112.466 92.4235 111.78 91.839C110.665 90.8734 110.064 89.0691 110.064 86.5787V84.5965H115.668H121.299L121.128 82.716C120.785 78.6501 118.412 76.7188 113.352 76.363C112.409 76.2868 110.951 76.363 110.093 76.4901ZM113.352 77.8369C113.638 78.2181 113.867 79.3362 113.981 81.0134L114.152 83.5801H112.123H110.064V81.725C110.064 79.8699 110.465 78.1164 110.979 77.532C111.494 76.9983 112.866 77.1762 113.352 77.8369Z" fill="aliceblue"/>
<path d="M173.273 76.491C169.985 76.9992 168.327 78.4731 168.327 80.7856C168.327 82.4374 168.927 83.2252 170.443 83.581C172.015 83.9622 173.301 83.7335 174.359 82.844C175.131 82.2087 175.245 81.9292 175.245 80.8111C175.245 79.6421 175.16 79.4642 174.531 79.2609C173.101 78.7781 173.959 76.9738 175.617 76.9738C176.989 76.9738 177.361 77.8887 177.475 81.7005L177.59 85.0549L175.646 85.2074C171.272 85.5631 170.643 85.6648 169.499 86.1984C168.013 86.91 167.241 88.1298 167.241 89.7307C167.241 91.2809 167.898 92.4753 169.185 93.2376C170.1 93.7967 170.5 93.8729 173.016 93.8729H175.846L176.846 92.9073L177.847 91.9416L178.562 92.704C179.448 93.6442 180.763 94 183.393 94C186.681 94 188.024 92.8819 188.31 89.8832C188.51 87.9519 187.996 87.9265 187.567 89.8832C187.224 91.4842 186.852 91.967 186.052 91.967C185.337 91.967 185.28 91.535 185.194 85.614C185.108 80.7856 185.051 80.3282 184.422 79.2101C183.307 77.1517 181.735 76.491 177.532 76.3385C176.046 76.2877 174.13 76.3385 173.273 76.491ZM177.132 91.3317C176.16 93.4155 174.96 92.5769 174.96 89.8324C174.96 87.6978 175.588 86.3509 176.675 86.1222L177.39 85.9697L177.475 88.1806C177.532 89.7307 177.418 90.6964 177.132 91.3317Z" fill="aliceblue"/>
<path d="M194.886 76.4656C191.598 77.2025 189.825 79.2355 189.825 82.3104C189.825 85.5123 191.398 86.8592 197.001 88.4093C200.718 89.4512 201.547 89.934 201.547 91.0268C201.547 91.9162 200.06 92.9073 198.488 93.1106C195.2 93.4918 192.198 91.8908 191.026 89.0954C190.083 86.8846 189.825 87.2658 189.825 90.7981C189.825 92.5515 189.911 94 189.997 94C190.083 94 190.54 93.7205 190.998 93.3647L191.827 92.7548L193.199 93.2885C194.886 93.9492 198.402 94.1779 200.346 93.7459C202.147 93.3647 203.891 92.0687 204.548 90.6456C205.263 89.0954 205.234 86.5288 204.491 85.2328C203.462 83.4793 202.118 82.7424 197.773 81.5988C194.171 80.6586 193.542 80.2774 193.542 79.1339C193.542 78.3969 193.713 78.1428 194.485 77.7362C195.572 77.1263 197.944 77.0501 199.345 77.5583C200.46 77.9903 202.318 79.7692 202.862 80.9381C203.576 82.4629 203.834 81.9292 203.834 79.0068C203.834 77.4566 203.748 76.2114 203.662 76.2114C203.548 76.2114 203.176 76.491 202.804 76.8468L202.147 77.4821L200.66 76.9738C198.916 76.3639 196.401 76.1352 194.886 76.4656Z" fill="aliceblue"/>
<path d="M41.1669 77.1009C41.1669 77.3805 41.4813 77.4821 42.3104 77.4821H43.4539V83.6827C43.4539 87.6724 43.5683 90.1628 43.797 90.7218C44.6832 93.0343 46.3699 93.9746 49.6862 94C52.1162 94 53.3455 93.6188 54.3746 92.5007C54.8035 92.0687 55.2037 91.7129 55.2894 91.7129C55.3752 91.7129 55.461 92.1449 55.5182 92.6532L55.6039 93.6188L60.2638 93.6951C64.2662 93.7459 64.8951 93.6951 64.8951 93.3647C64.8951 93.0852 64.6092 92.9835 63.8945 92.9835H62.8939V84.8516V76.7197H58.0053C54.2317 76.7197 53.1453 76.796 53.2311 77.0247C53.3169 77.2026 53.7743 77.3805 54.2603 77.4313L55.1751 77.5075V83.4031C55.1465 89.502 54.975 90.6456 53.86 91.7383C53.6027 91.9924 53.031 92.2211 52.6022 92.2211C51.087 92.2211 51.0298 91.9924 50.944 84.0384L50.8297 76.7197H45.9983C41.8816 76.7197 41.1669 76.7706 41.1669 77.1009Z" fill="aliceblue"/>
<path d="M65.4669 77.1005C65.4669 77.3801 65.7814 77.4817 66.6104 77.4817H67.754V85.2324V92.9832H66.7534C66.0673 92.9832 65.7528 93.1102 65.7528 93.3644C65.7528 93.6947 66.6104 93.7455 71.7563 93.7455C76.9022 93.7455 77.7599 93.6947 77.7599 93.3644C77.7599 93.0848 77.4454 92.9832 76.6163 92.9832H75.4728V84.8513V76.7193H70.4699C66.2102 76.7193 65.4669 76.7702 65.4669 77.1005Z" fill="aliceblue"/>
<path d="M124.187 82.9457C123.843 83.7335 124.387 83.8352 129.39 83.8352H134.364V83.1999V82.5646H129.361C125.244 82.5646 124.301 82.6408 124.187 82.9457Z" fill="aliceblue"/>
</svg>
